<?xml version="1.0" encoding="utf-8"?>
<!-- Generator: Adobe Illustrator 23.1.1, SVG Export Plug-In . SVG Version: 6.00 Build 0)  -->
<svg version="1.1" id="Layer_1" xmlns="http://www.w3.org/2000/svg" xmlns:xlink="http://www.w3.org/1999/xlink" x="0px" y="0px"
	 viewBox="0 0 185 50" style="enable-background:new 0 0 185 50;" xml:space="preserve">
<style type="text/css">
	.st0{fill:#FFFFFF;}
	.st1{fill:#FF5C62;}
</style>
<path class="st0" d="M66,20.2c0-2.5,0.4-4.4,1.3-5.7c0.9-1.3,2.1-2,3.7-2s2.8,0.7,3.7,2c0.9,1.3,1.3,3.2,1.3,5.7s-0.4,4.4-1.3,5.7
	c-0.9,1.3-2.1,2-3.7,2s-2.8-0.7-3.7-2C66.4,24.6,66,22.7,66,20.2L66,20.2z M73.9,20.2c0-0.8,0-1.6-0.1-2.3c-0.1-0.7-0.3-1.4-0.5-1.9
	c-0.2-0.5-0.5-1-0.9-1.3c-0.4-0.3-0.8-0.5-1.4-0.5s-1,0.2-1.4,0.5C69.3,15,69,15.4,68.7,16c-0.2,0.5-0.4,1.2-0.5,1.9
	c-0.1,0.8-0.1,1.5-0.1,2.3c0,0.8,0,1.6,0.1,2.3s0.3,1.4,0.5,1.9c0.2,0.5,0.5,1,0.9,1.3c0.4,0.3,0.8,0.5,1.4,0.5c0.5,0,1-0.2,1.4-0.5
	c0.4-0.3,0.7-0.8,0.9-1.3c0.2-0.5,0.4-1.2,0.5-1.9C73.9,21.7,73.9,20.9,73.9,20.2L73.9,20.2z M78,20.2c0-2.5,0.4-4.4,1.3-5.7
	c0.9-1.3,2.1-2,3.7-2c1.6,0,2.8,0.7,3.7,2c0.9,1.3,1.3,3.2,1.3,5.7s-0.4,4.4-1.3,5.7c-0.9,1.3-2.1,2-3.7,2c-1.6,0-2.8-0.7-3.7-2
	C78.4,24.6,78,22.7,78,20.2L78,20.2z M85.9,20.2c0-0.8,0-1.6-0.1-2.3c-0.1-0.7-0.3-1.4-0.5-1.9s-0.5-1-0.9-1.3
	c-0.4-0.3-0.8-0.5-1.4-0.5c-0.5,0-1,0.2-1.4,0.5c-0.4,0.3-0.7,0.8-0.9,1.3c-0.2,0.5-0.4,1.2-0.5,1.9c-0.1,0.8-0.1,1.5-0.1,2.3
	c0,0.8,0,1.6,0.1,2.3c0.1,0.7,0.3,1.4,0.5,1.9c0.2,0.5,0.5,1,0.9,1.3c0.4,0.3,0.8,0.5,1.4,0.5c0.5,0,1-0.2,1.4-0.5
	c0.4-0.3,0.7-0.8,0.9-1.3c0.2-0.5,0.4-1.2,0.5-1.9C85.9,21.7,85.9,20.9,85.9,20.2z M90,20.2c0-2.5,0.4-4.4,1.3-5.7
	c0.9-1.3,2.1-2,3.7-2c1.6,0,2.8,0.7,3.7,2s1.3,3.2,1.3,5.7s-0.4,4.4-1.3,5.7c-0.9,1.3-2.1,2-3.7,2c-1.6,0-2.8-0.7-3.7-2
	C90.4,24.6,90,22.7,90,20.2L90,20.2L90,20.2z M97.9,20.2c0-0.8,0-1.6-0.1-2.3c-0.1-0.7-0.3-1.4-0.5-1.9s-0.5-1-0.9-1.3
	c-0.4-0.3-0.8-0.5-1.4-0.5c-0.6,0-1,0.2-1.4,0.5c-0.4,0.3-0.7,0.8-0.9,1.3c-0.2,0.5-0.4,1.2-0.5,1.9c-0.1,0.8-0.1,1.5-0.1,2.3
	c0,0.8,0,1.6,0.1,2.3c0.1,0.7,0.3,1.4,0.5,1.9c0.2,0.5,0.5,1,0.9,1.3c0.4,0.3,0.8,0.5,1.4,0.5c0.5,0,1-0.2,1.4-0.5s0.7-0.8,0.9-1.3
	c0.2-0.5,0.4-1.2,0.5-1.9C97.8,21.7,97.9,20.9,97.9,20.2L97.9,20.2z M111.8,27.6c-0.5-1.2-0.9-2.3-1.3-3.5c-0.5-1.4-0.9-2.7-1.2-4.1
	c-0.4,1.4-0.8,2.8-1.2,4.1c-0.4,1.2-0.8,2.4-1.3,3.5H105c-0.7-1.5-1.3-3.1-1.9-5c-0.7-2-1.3-4-1.8-6.1h2.2c0.1,0.7,0.3,1.4,0.5,2.2
	c0.2,0.8,0.4,1.6,0.6,2.4c0.2,0.8,0.5,1.5,0.7,2.3c0.2,0.7,0.5,1.4,0.7,1.9c0.2-0.7,0.5-1.4,0.7-2.1c0.2-0.7,0.5-1.5,0.7-2.3
	c0.2-0.8,0.4-1.5,0.6-2.2c0.2-0.7,0.4-1.4,0.5-2.1h1.7c0.1,0.6,0.3,1.3,0.5,2.1s0.4,1.5,0.6,2.2s0.4,1.5,0.7,2.3s0.5,1.5,0.7,2.1
	c0.2-0.5,0.4-1.2,0.7-1.9c0.2-0.7,0.5-1.5,0.7-2.3c0.2-0.8,0.4-1.6,0.7-2.4c0.2-0.7,0.4-1.5,0.5-2.2h2.1c-0.5,2.1-1.1,4.1-1.8,6.1
	c-0.6,1.9-1.3,3.6-1.9,5L111.8,27.6L111.8,27.6z M118.5,22.1c0-1,0.1-1.8,0.4-2.6c0.3-0.7,0.7-1.3,1.1-1.8c0.5-0.5,1-0.8,1.6-1.1
	c0.6-0.2,1.3-0.4,1.9-0.4c1.5,0,2.7,0.5,3.5,1.4c0.8,0.9,1.2,2.4,1.2,4.3v0.3c0,0.1,0,0.3,0,0.4h-7.7c0.1,1.2,0.4,2,1,2.6
	c0.6,0.6,1.5,0.9,2.8,0.9c0.7,0,1.3-0.1,1.8-0.2c0.5-0.1,0.8-0.2,1.1-0.4l0.3,1.7c-0.2,0.1-0.7,0.3-1.3,0.4s-1.3,0.2-2.1,0.2
	c-1,0-1.8-0.1-2.5-0.4c-0.7-0.3-1.3-0.7-1.8-1.2c-0.5-0.5-0.8-1.2-1-1.8C118.6,23.6,118.5,22.8,118.5,22.1L118.5,22.1z M126.3,21
	c0-0.9-0.2-1.6-0.7-2.2c-0.5-0.6-1.1-0.9-1.9-0.9c-0.5,0-0.9,0.1-1.2,0.3c-0.3,0.2-0.6,0.4-0.9,0.7c-0.2,0.3-0.4,0.6-0.6,1
	c-0.1,0.4-0.2,0.7-0.3,1.1L126.3,21L126.3,21z M133,17c0.2-0.2,0.6-0.3,1.1-0.5c0.5-0.2,1.1-0.3,1.7-0.3c0.8,0,1.5,0.1,2.2,0.4
	c0.6,0.3,1.2,0.7,1.6,1.2c0.4,0.5,0.8,1.1,1,1.8c0.2,0.7,0.3,1.5,0.3,2.4c0,0.9-0.1,1.7-0.4,2.4c-0.2,0.7-0.6,1.3-1.1,1.8
	c-0.5,0.5-1.1,0.9-1.8,1.2c-0.7,0.3-1.5,0.4-2.3,0.4c-0.9,0-1.8-0.1-2.5-0.2c-0.6-0.1-1.2-0.2-1.8-0.4V11.3l2-0.3L133,17z M133,25.9
	c0.2,0.1,0.5,0.1,0.9,0.2c0.4,0,0.8,0.1,1.4,0.1c1.1,0,1.9-0.4,2.6-1.1c0.6-0.7,1-1.7,1-3c0-0.6-0.1-1.1-0.2-1.6
	c-0.1-0.5-0.3-0.9-0.6-1.3c-0.3-0.4-0.6-0.7-1-0.9c-0.4-0.2-0.9-0.3-1.5-0.3c-0.5,0-1.1,0.1-1.5,0.3c-0.5,0.2-0.8,0.4-1.1,0.6
	L133,25.9L133,25.9z M143.6,27.6V11.3l2-0.3v5.7c0.4-0.1,0.8-0.3,1.2-0.3c0.4-0.1,0.8-0.1,1.3-0.1c0.9,0,1.6,0.1,2.2,0.4
	c0.6,0.2,1.1,0.6,1.4,1c0.4,0.5,0.6,1,0.7,1.6c0.1,0.6,0.2,1.3,0.2,2.1v6.2h-2v-5.8c0-0.7,0-1.3-0.1-1.8s-0.2-0.9-0.5-1.2
	c-0.2-0.3-0.5-0.5-0.9-0.7c-0.4-0.1-0.8-0.2-1.3-0.2c-0.2,0-0.4,0-0.7,0c-0.2,0-0.4,0.1-0.7,0.1c-0.2,0-0.4,0.1-0.6,0.1
	c-0.1,0-0.2,0.1-0.4,0.1v9.2L143.6,27.6L143.6,27.6z M165.6,22c0,0.9-0.1,1.7-0.4,2.4c-0.2,0.7-0.6,1.3-1.1,1.8
	c-0.5,0.5-1,0.9-1.7,1.2c-0.7,0.3-1.4,0.4-2.1,0.4c-0.7,0-1.4-0.1-2.1-0.4c-0.6-0.3-1.2-0.7-1.7-1.2c-0.5-0.5-0.9-1.2-1.1-1.8
	c-0.3-0.7-0.4-1.5-0.4-2.4c0-0.9,0.1-1.7,0.4-2.4s0.6-1.3,1.1-1.9c0.5-0.5,1-0.9,1.7-1.2c0.7-0.3,1.4-0.4,2.1-0.4
	c0.8,0,1.5,0.1,2.1,0.4c0.6,0.3,1.2,0.7,1.7,1.2c0.5,0.5,0.8,1.1,1.1,1.9S165.6,21.2,165.6,22z M163.5,22c0-1.3-0.3-2.2-0.9-3
	s-1.3-1.1-2.3-1.1c-1,0-1.8,0.4-2.3,1.1s-0.9,1.7-0.9,3c0,1.3,0.3,2.2,0.9,3s1.3,1.1,2.3,1.1c1,0,1.8-0.4,2.3-1.1
	S163.5,23.3,163.5,22L163.5,22z M170.8,26.2c0.8,0,1.4-0.1,1.8-0.3c0.4-0.2,0.6-0.6,0.6-1c0-0.5-0.2-0.9-0.6-1.2
	c-0.4-0.3-1-0.6-1.9-1c-0.4-0.2-0.8-0.3-1.2-0.5c-0.4-0.2-0.7-0.4-1-0.6c-0.3-0.2-0.5-0.5-0.7-0.9c-0.2-0.3-0.3-0.8-0.3-1.3
	c0-1,0.4-1.8,1.1-2.3c0.7-0.6,1.7-0.9,3-0.9c0.3,0,0.6,0,1,0.1c0.3,0,0.6,0.1,0.9,0.1c0.3,0,0.5,0.1,0.7,0.2
	c0.2,0.1,0.4,0.1,0.5,0.2l-0.4,1.7c-0.2-0.1-0.6-0.2-1-0.4c-0.5-0.1-1-0.2-1.7-0.2c-0.6,0-1.1,0.1-1.5,0.3s-0.6,0.6-0.6,1
	c0,0.2,0,0.5,0.1,0.6c0.1,0.2,0.2,0.4,0.4,0.5s0.4,0.3,0.7,0.4c0.3,0.1,0.6,0.3,1,0.4c0.5,0.2,1,0.4,1.4,0.6
	c0.4,0.2,0.7,0.4,1.1,0.7c0.3,0.3,0.5,0.6,0.7,0.9c0.2,0.4,0.2,0.8,0.2,1.3c0,1-0.4,1.8-1.2,2.3c-0.8,0.5-1.9,0.8-3.3,0.8
	c-1,0-1.8-0.1-2.3-0.2c-0.6-0.2-0.9-0.3-1.1-0.4l0.4-1.7c0.2,0.1,0.6,0.2,1.1,0.4C169.3,26.1,170,26.2,170.8,26.2L170.8,26.2z
	 M179.5,16.5h4.3v1.7h-4.3v5.1c0,0.6,0,1,0.1,1.4c0.1,0.4,0.2,0.6,0.4,0.9c0.2,0.2,0.4,0.4,0.6,0.4c0.3,0.1,0.6,0.1,0.9,0.1
	c0.6,0,1.1-0.1,1.5-0.2c0.4-0.1,0.6-0.2,0.8-0.3l0.4,1.6c-0.2,0.1-0.6,0.2-1.1,0.4c-0.5,0.1-1.1,0.2-1.7,0.2c-0.8,0-1.4-0.1-1.9-0.3
	c-0.5-0.2-0.9-0.5-1.2-0.9c-0.3-0.4-0.5-0.9-0.6-1.4s-0.2-1.2-0.2-2v-9.9l2-0.3V16.5z M68.5,34c0.9,0,1.5,0.2,2,0.5
	c0.5,0.3,0.7,0.8,0.7,1.5c0,0.7-0.2,1.2-0.7,1.5c-0.5,0.3-1.1,0.5-2,0.5h-0.4v2h-1.3v-5.8c0.3-0.1,0.6-0.1,0.9-0.1
	C68,34,68.3,34,68.5,34L68.5,34z M68.6,35.1c-0.1,0-0.2,0-0.3,0c-0.1,0-0.2,0-0.2,0v1.7h0.4c0.5,0,0.8-0.1,1-0.2s0.3-0.4,0.3-0.7
	c0-0.1,0-0.3-0.1-0.4c-0.1-0.1-0.1-0.2-0.2-0.3c-0.1-0.1-0.3-0.1-0.4-0.1C68.9,35.1,68.8,35.1,68.6,35.1L68.6,35.1z M74,37
	c0,0.3,0,0.5,0.1,0.8s0.2,0.4,0.3,0.6c0.1,0.2,0.3,0.3,0.5,0.4s0.4,0.1,0.7,0.1c0.2,0,0.5,0,0.6-0.1c0.2-0.1,0.4-0.2,0.5-0.4
	c0.1-0.2,0.2-0.4,0.3-0.6c0.1-0.2,0.1-0.5,0.1-0.8c0-0.3,0-0.5-0.1-0.8c-0.1-0.2-0.2-0.4-0.3-0.6c-0.1-0.2-0.3-0.3-0.5-0.4
	c-0.2-0.1-0.4-0.1-0.6-0.1c-0.4,0-0.9,0.2-1.1,0.5c-0.1,0.2-0.2,0.4-0.3,0.6C74,36.4,74,36.7,74,37z M78.4,37c0,0.5-0.1,0.9-0.2,1.3
	c-0.1,0.4-0.3,0.7-0.6,1c-0.3,0.3-0.6,0.5-0.9,0.6c-0.4,0.1-0.8,0.2-1.1,0.2c-0.4,0-0.8-0.1-1.1-0.2c-0.7-0.3-1.3-0.8-1.5-1.5
	c-0.2-0.4-0.2-0.8-0.2-1.3c0-0.5,0.1-0.9,0.2-1.3c0.2-0.4,0.4-0.7,0.6-1c0.3-0.3,0.6-0.5,0.9-0.6c0.3-0.1,0.7-0.2,1.1-0.2
	c0.4,0,0.8,0.1,1.1,0.2c0.4,0.1,0.7,0.3,0.9,0.6c0.3,0.3,0.5,0.6,0.6,1S78.4,36.5,78.4,37z M84.1,34.7c0.1,0.2,0.1,0.5,0.2,0.8
	c0.1,0.3,0.2,0.6,0.3,0.9s0.2,0.6,0.3,0.9c0.1,0.3,0.2,0.6,0.3,0.9c0.2-0.7,0.3-1.3,0.4-2c0.1-0.7,0.3-1.4,0.4-2.1h1.4
	c-0.2,1-0.4,2-0.7,3c-0.2,1-0.5,1.9-0.8,2.9h-1.2c-0.2-0.6-0.4-1.1-0.6-1.7c-0.2-0.6-0.4-1.2-0.5-1.8l-0.5,1.8
	c-0.2,0.6-0.4,1.1-0.6,1.7h-1.2c-0.3-0.9-0.6-1.9-0.8-2.9c-0.2-1-0.5-2-0.7-3h1.4c0.1,0.7,0.3,1.4,0.4,2.1c0.1,0.4,0.1,0.7,0.2,1
	c0.1,0.3,0.2,0.7,0.2,0.9c0.1-0.3,0.2-0.6,0.3-0.9s0.2-0.6,0.3-0.9c0.1-0.3,0.2-0.6,0.2-0.9c0.1-0.3,0.1-0.5,0.2-0.8H84.1z
	 M88.9,39.9V34h3.9v1.1h-2.6v1.1h2.3v1.1h-2.3v1.4H93v1.1L88.9,39.9L88.9,39.9z M96.4,34c0.9,0,1.5,0.2,2,0.5
	c0.5,0.3,0.7,0.8,0.7,1.5c0,0.4-0.1,0.7-0.3,1s-0.5,0.5-0.8,0.6c0.1,0.1,0.2,0.3,0.4,0.5c0.4,0.6,0.8,1.2,1.1,1.9H98
	c-0.1-0.2-0.2-0.4-0.3-0.6c-0.2-0.4-0.4-0.7-0.7-1.1c-0.1-0.2-0.2-0.3-0.3-0.5H96v2.1h-1.3v-5.8c0.3-0.1,0.6-0.1,0.9-0.1
	C95.9,34,96.2,34,96.4,34L96.4,34z M96.5,35.1c-0.1,0-0.2,0-0.3,0l-0.2,0v1.6h0.4c0.5,0,0.8-0.1,1.1-0.2c0.2-0.1,0.3-0.3,0.3-0.6
	c0-0.3-0.1-0.5-0.3-0.6C97.2,35.1,96.9,35.1,96.5,35.1z M101,39.9V34h3.9v1.1h-2.6v1.1h2.3v1.1h-2.3v1.4h2.8v1.1L101,39.9L101,39.9z
	 M108.2,38.8c0.2,0,0.3,0,0.5,0c0.7,0,1.1-0.2,1.5-0.5s0.5-0.8,0.5-1.4c0-0.6-0.2-1.1-0.5-1.4s-0.8-0.5-1.4-0.5c-0.1,0-0.2,0-0.3,0
	c-0.1,0-0.2,0-0.3,0L108.2,38.8L108.2,38.8z M111.9,37c0,0.5-0.1,0.9-0.2,1.3c-0.1,0.4-0.4,0.7-0.7,0.9c-0.3,0.3-0.7,0.4-1.1,0.6
	c-0.5,0.1-0.9,0.2-1.4,0.2c-0.2,0-0.5,0-0.8,0c-0.3,0-0.6-0.1-0.9-0.1v-5.7c0.3-0.1,0.6-0.1,0.9-0.1c0.3,0,0.6,0,0.8,0
	c0.5,0,0.9,0.1,1.3,0.2c0.4,0.1,0.8,0.3,1,0.5c0.3,0.2,0.5,0.6,0.7,0.9C111.9,36,111.9,36.4,111.9,37z M118.5,40c-0.3,0-0.6,0-0.9,0
	c-0.3,0-0.7-0.1-1-0.1v-5.7c0.3-0.1,0.6-0.1,0.9-0.1c0.3,0,0.6,0,0.9,0c0.4,0,0.7,0,1,0.1c0.3,0.1,0.6,0.1,0.8,0.3
	c0.2,0.1,0.4,0.3,0.5,0.5c0.1,0.2,0.2,0.5,0.2,0.8c0,0.5-0.2,0.8-0.7,1.1c0.4,0.1,0.6,0.3,0.8,0.6c0.1,0.2,0.2,0.5,0.2,0.8
	c0,0.6-0.2,1.1-0.7,1.4C120,39.8,119.4,40,118.5,40z M117.8,37.3v1.5c0.1,0,0.2,0,0.3,0c0.1,0,0.2,0,0.4,0c0.4,0,0.7-0.1,0.9-0.2
	c0.2-0.1,0.4-0.3,0.4-0.6c0-0.3-0.1-0.5-0.3-0.6c-0.2-0.1-0.5-0.2-0.9-0.2L117.8,37.3z M117.8,36.3h0.6c0.4,0,0.7-0.1,0.9-0.2
	s0.3-0.3,0.3-0.5c0-0.2-0.1-0.4-0.3-0.5c-0.2-0.1-0.4-0.1-0.8-0.1c-0.1,0-0.2,0-0.4,0c-0.1,0-0.2,0-0.3,0L117.8,36.3L117.8,36.3z
	 M124.8,36.4c0.2-0.4,0.5-0.8,0.7-1.2c0.2-0.4,0.4-0.8,0.6-1.2h1.4c-0.3,0.6-0.6,1.2-1,1.8c-0.3,0.6-0.7,1.2-1.1,1.8v2.2h-1.3v-2.2
	c-0.4-0.6-0.7-1.2-1.1-1.8c-0.3-0.6-0.7-1.2-1-1.8h1.5c0.2,0.4,0.4,0.8,0.6,1.2C124.3,35.6,124.5,36,124.8,36.4L124.8,36.4z
	 M135.2,34h1.3v5.9h-1.3v-2.5H133v2.5h-1.3V34h1.3v2.2h2.2V34z M139.7,37c0,0.3,0,0.5,0.1,0.8c0.1,0.2,0.2,0.4,0.3,0.6
	c0.1,0.2,0.3,0.3,0.5,0.4s0.4,0.1,0.7,0.1c0.2,0,0.5,0,0.6-0.1c0.2-0.1,0.4-0.2,0.5-0.4c0.1-0.2,0.2-0.4,0.3-0.6
	c0.1-0.2,0.1-0.5,0.1-0.8c0-0.3,0-0.5-0.1-0.8c-0.1-0.2-0.2-0.4-0.3-0.6c-0.1-0.2-0.3-0.3-0.5-0.4c-0.2-0.1-0.4-0.1-0.6-0.1
	c-0.4,0-0.9,0.2-1.1,0.5c-0.1,0.2-0.2,0.4-0.3,0.6C139.7,36.4,139.7,36.7,139.7,37L139.7,37z M144.1,37c0,0.5-0.1,0.9-0.2,1.3
	c-0.1,0.4-0.3,0.7-0.6,1c-0.3,0.3-0.6,0.5-0.9,0.6c-0.4,0.1-0.8,0.2-1.1,0.2c-0.4,0-0.8-0.1-1.1-0.2c-0.3-0.1-0.7-0.3-0.9-0.6
	c-0.3-0.3-0.5-0.6-0.6-1c-0.1-0.4-0.2-0.8-0.2-1.3c0-0.5,0.1-0.9,0.2-1.3s0.4-0.7,0.6-1c0.3-0.3,0.6-0.5,0.9-0.6
	c0.3-0.1,0.7-0.2,1.1-0.2c0.4,0,0.8,0.1,1.1,0.2c0.4,0.1,0.7,0.3,0.9,0.6c0.3,0.3,0.5,0.6,0.6,1C144,36,144.1,36.5,144.1,37z
	 M147.5,38.9c0.2,0,0.3,0,0.5,0c0.1,0,0.2-0.1,0.3-0.1c0.1,0,0.1-0.1,0.1-0.2c0-0.1,0-0.2,0-0.2c0-0.2-0.1-0.4-0.3-0.5
	c-0.2-0.1-0.5-0.3-0.9-0.4c-0.2-0.1-0.4-0.1-0.6-0.2c-0.2-0.1-0.4-0.2-0.5-0.3c-0.2-0.1-0.3-0.3-0.4-0.5c-0.1-0.2-0.1-0.5-0.1-0.7
	c0-0.3,0.1-0.5,0.1-0.7c0.1-0.2,0.2-0.4,0.4-0.6c0.2-0.2,0.4-0.3,0.7-0.4c0.3-0.1,0.6-0.1,0.9-0.1c0.6,0,1.2,0.1,1.7,0.4l-0.4,1
	c-0.2-0.1-0.4-0.2-0.5-0.2c-0.2-0.1-0.5-0.1-0.7-0.1c-0.3,0-0.5,0-0.7,0.1s-0.2,0.2-0.2,0.4c0,0.1,0,0.2,0.1,0.3
	c0.1,0.1,0.1,0.1,0.2,0.2c0.1,0.1,0.2,0.1,0.3,0.2c0.1,0,0.3,0.1,0.4,0.1c0.3,0.1,0.6,0.2,0.8,0.3c0.2,0.1,0.4,0.2,0.6,0.4
	c0.1,0.1,0.3,0.3,0.3,0.5c0.1,0.2,0.1,0.4,0.1,0.7c0,0.5-0.2,1-0.6,1.3c-0.4,0.3-0.9,0.5-1.7,0.5c-0.4,0-0.8,0-1.2-0.2
	c-0.2-0.1-0.5-0.2-0.7-0.3l0.4-1c0.2,0.1,0.4,0.2,0.6,0.3C146.9,38.8,147.2,38.9,147.5,38.9L147.5,38.9z M155.7,34v1.1H154v4.7h-1.3
	v-4.7h-1.7V34H155.7z M157.3,34h1.3v5.9h-1.3V34z M164.6,39.9c-0.4-0.7-0.8-1.3-1.2-2c-0.4-0.6-0.9-1.3-1.4-1.8v3.8h-1.3V34h1.1
	c0.2,0.2,0.4,0.4,0.6,0.7c0.5,0.6,0.9,1.2,1.4,1.8c0.2,0.3,0.4,0.6,0.6,1V34h1.3v5.9H164.6z M170.6,35c-0.6,0-1,0.2-1.3,0.5
	c-0.3,0.3-0.4,0.8-0.4,1.4c0,0.3,0,0.5,0.1,0.8c0.1,0.2,0.2,0.4,0.3,0.6s0.3,0.3,0.5,0.4c0.2,0.1,0.4,0.1,0.7,0.1c0.1,0,0.3,0,0.4,0
	s0.2,0,0.3,0v-2h1.3v2.9c-0.2,0.1-0.5,0.2-0.8,0.2c-0.3,0.1-0.8,0.1-1.3,0.1c-0.4,0-0.8-0.1-1.2-0.2c-0.3-0.1-0.7-0.3-0.9-0.6
	c-0.3-0.3-0.5-0.6-0.6-1c-0.1-0.4-0.2-0.9-0.2-1.3c0-0.5,0.1-0.9,0.2-1.3c0.1-0.4,0.3-0.7,0.6-1c0.3-0.3,0.6-0.5,0.9-0.6
	c0.4-0.1,0.7-0.2,1.1-0.2c0.4,0,0.9,0.1,1.3,0.2c0.2,0.1,0.4,0.2,0.6,0.3l-0.4,1.1c-0.2-0.1-0.4-0.2-0.6-0.2
	C171.1,35.1,170.9,35,170.6,35L170.6,35z M174.4,39.9V34h3.9v1.1h-2.6v1.1h2.3v1.1h-2.3v1.4h2.8v1.1L174.4,39.9L174.4,39.9z M182,34
	c0.9,0,1.5,0.2,2,0.5c0.5,0.3,0.7,0.8,0.7,1.5c0,0.4-0.1,0.7-0.3,1s-0.5,0.5-0.8,0.6c0.1,0.1,0.2,0.3,0.4,0.5
	c0.4,0.6,0.8,1.2,1.1,1.9h-1.5l-0.3-0.6c-0.2-0.4-0.4-0.7-0.7-1.1c-0.1-0.2-0.2-0.3-0.3-0.5h-0.6v2.1h-1.3v-5.8
	c0.3-0.1,0.6-0.1,0.9-0.1C181.4,34,181.7,34,182,34L182,34z M182,35.1c-0.1,0-0.2,0-0.3,0l-0.2,0v1.6h0.4c0.5,0,0.8-0.1,1.1-0.2
	c0.2-0.1,0.3-0.3,0.3-0.6c0-0.3-0.1-0.5-0.3-0.6C182.8,35.1,182.4,35.1,182,35.1L182,35.1z"/>
<path class="st1" d="M18.6,20C16.1,42.9,37.1,46.5,43,39.9C32.5,65.4,7.9,36.5,18.6,20z M15,16C5.9,17.3-7.6,46,8.4,42.7
	C-1.4,39.2,8.5,18.9,15,16z M15,12.3C12,10.8,0.8,15.2,0,24C2.1,19.3,7.5,13,15,12.3z M19,9.5C14.3,5.8,8.7,10,7,11
	C11.7,5.5,18.7,6.4,19,9.5z M23.9,7c3.5-2.6-1.8-7.5-6.9-3.5C18.8,2.8,25,2,23.9,7z M28.6,9c6-6.1,1-8.5-0.6-8.6
	C36.3-2,32.6,7.9,28.6,9z M30,12.6C36.4,15.2,55.4,4.2,40.3,2C43.7,2.9,44.5,10.1,30,12.6L30,12.6z M26,18.6
	C30.3,31.1,68.3,30,51.9,13C55.5,18.8,46.6,29.2,26,18.6L26,18.6z"/>
</svg>
