<svg xmlns="http://www.w3.org/2000/svg" width="212" height="171" viewBox="0 0 212 171">
    <g fill="none" fill-rule="evenodd">
        <path fill="#FF5C62" d="M48.914 82.956C47.152 82.393 45.581 11.754 68.2 2.75c16.83-6.699 24.979 33.62 24.979 33.62s11.604-8.039 21.252 1.198c0 0 37.567-39.043 48.56-27.564 10.992 11.479-11.355 61.224-15.487 67.538-4.131 6.314-98.59 5.413-98.59 5.413"/>
        <path fill="#FFFFFE" d="M114 37.33c-9.534-9.007-21-1.168-21-1.168s9.789 19.083 21 1.168"/>
        <path fill="#32454C" d="M50.132 81.291c1.897.013 5.663.034 10.611.034 13.542 0 33.354-.147 50.832-.85 29.143-1.173 33.808-3.217 34.545-3.856 2.107-3.271 8.603-17.18 13.203-31.46 5.693-17.667 6.58-29.746 2.5-34.013-1.002-1.046-2.34-1.555-4.092-1.555-11.373 0-34.143 21.101-41.957 29.232-.701.73-1.86.754-2.591.053-2.734-2.62-5.911-3.948-9.445-3.948-5.269 0-9.51 2.9-9.553 2.929a1.835 1.835 0 0 1-2.843-1.146C89.482 27.522 82.354 3.675 71.82 3.675c-.986 0-2.013.21-3.052.624-8.393 3.345-14.597 17.596-17.471 40.129-2.174 17.041-1.717 32.674-1.166 36.863zM60.743 85c-7.244 0-11.963-.044-12.01-.044a1.84 1.84 0 0 1-.54-.087c-1.387-.443-1.57-2.018-1.749-3.542-.156-1.337-.279-3.192-.355-5.363-.344-9.783.237-26.447 3.005-41.214C52.665 15.7 58.828 4.305 67.412.884 68.885.298 70.367 0 71.82 0c6.77 0 12.738 6.19 17.74 18.394 2.46 6.001 4.052 11.93 4.826 15.143 2.105-1.026 5.477-2.284 9.351-2.284 3.928 0 7.491 1.267 10.618 3.77 5.75-5.796 29.73-29.107 43.375-29.107 2.768 0 5.036.905 6.742 2.688 5.204 5.441 4.647 18.12-1.657 37.684-4.796 14.887-11.444 29.007-13.663 32.402-.96 1.469-3.479 2.67-12.65 3.755-5.807.687-13.83 1.247-23.846 1.663-17.723.737-38.013.892-51.914.892z"/>
        <path fill="#FF5C62" d="M51.338 61s-15.905 8.129-16.027 10.004l5.358.683S35.654 75.109 35 78.152L43.19 81 54 79.557"/>
        <path fill="#32454C" d="M43.733 83c-.21 0-.42-.037-.618-.11l-7.917-2.895a1.84 1.84 0 0 1-1.16-2.098c.363-1.774 1.682-3.528 3.015-4.916l-1.174-.157a1.832 1.832 0 0 1-1.575-1.934c.079-1.266.747-2.529 8.68-7.265a227.238 227.238 0 0 1 7.774-4.41 1.807 1.807 0 0 1 2.456.76 1.846 1.846 0 0 1-.75 2.482c-4.426 2.379-9.356 5.269-12.254 7.244l1.326.177c.74.1 1.344.647 1.524 1.379a1.845 1.845 0 0 1-.712 1.938c-1.309.943-3.096 2.573-4.075 4.02l5.655 2.068 10.005-1.404a1.819 1.819 0 0 1 2.05 1.566 1.832 1.832 0 0 1-1.55 2.07l-10.45 1.467a1.812 1.812 0 0 1-.25.018"/>
        <path fill="#FF5C62" d="M152.366 59.155s9.014-1.335 14.97 3.838l-3.91 3.398s3.09.358 5.574 2.941c0 0-11.602 12.228-16.727 9.18-5.124-3.047-5.273-7.789-5.273-7.789"/>
        <path fill="#32454C" d="M153.74 81c-.978 0-1.902-.226-2.735-.743-5.762-3.572-5.997-9.203-6.004-9.44-.03-1.032.75-1.894 1.747-1.926.985-.043 1.828.777 1.859 1.808.007.14.235 3.863 4.252 6.354 2.197 1.364 8.336-3.196 12.685-7.58-1.53-1.048-2.96-1.25-2.978-1.253a1.821 1.821 0 0 1-1.513-1.301 1.91 1.91 0 0 1 .535-1.96l2.108-1.91c-4.991-3.114-11.337-2.185-11.408-2.174-.989.153-1.903-.551-2.05-1.571-.147-1.02.533-1.971 1.518-2.123.391-.06 9.663-1.415 16.01 4.333.392.355.616.867.616 1.406 0 .538-.224 1.05-.616 1.406l-1.445 1.309a11.571 11.571 0 0 1 3.18 2.422c.662.718.666 1.848.008 2.571C167.747 72.564 159.724 81 153.74 81"/>
        <path fill="#FF5C62" d="M174.4 159.022s24.025 16.887 33.19-.763c9.165-17.651-10.611-28.527-12.726-34.945-2.115-6.42-19.406-73.785-90.258-70.174-70.851 3.61-75.081 44.534-89.886 73.417C-.085 155.44-.437 157.46 5.908 163.479c6.345 6.017 18.682 9.158 31.372-4.482 0 0 56.751 22.49 137.12.025"/>
        <path fill="#FFFFFE" d="M12.039 132C-.116 155.986-.032 158.144 5.936 163.814c6.392 6.072 18.82 9.242 31.605-4.523 0 0 6.017-22.718-25.502-27.291M207.584 157.936c8.262-15.907-6.937-26.322-11.623-32.936-26.295 17.426-21.643 33.7-21.643 33.7s24.08 16.923 33.266-.764M159.994 117.028c.66-45.771-50.146-37.669-58.724-30.326 0 0-45.857-18.301-54.764 23.72-6.663 31.432 9.747 49.624 30.315 57.139 13.832 1.533 30.845 2.138 50.296.315 17.966-6.075 32.44-20.536 32.877-50.848"/>
        <path fill="#32454C" d="M37.197 157.395c.227 0 .455.042.674.128.25.098 25.478 9.818 65.309 9.818h.006c23.436 0 47.261-3.315 70.82-9.854a1.85 1.85 0 0 1 1.55.264c.098.069 10.031 6.912 19.044 6.912 5.271 0 9.034-2.295 11.502-7.017 6.027-11.525-1.523-19.69-7.59-26.252-2.544-2.751-4.553-4.925-5.267-7.076-.096-.29-.222-.699-.382-1.217-7.758-25.187-28.832-67.442-82.812-67.442-1.752 0-3.551.046-5.345.137-58.457 2.958-70.321 30.634-81.795 57.4-2.196 5.122-4.27 9.96-6.669 14.609-15.008 29.074-14.346 29.697-9.196 34.547 1.828 1.722 5.752 4.61 11.497 4.61 5.816 0 11.801-3.107 17.308-8.985a1.843 1.843 0 0 1 1.346-.582zM103.187 171h-.008c-36.203 0-60.025-7.688-65.492-9.64-7.535 7.626-14.532 9.26-19.144 9.26-5.202 0-10.183-1.992-14.025-5.61-7.562-7.122-6.205-10.48 8.453-38.877 2.34-4.533 4.389-9.313 6.558-14.373 11.362-26.505 24.24-56.545 84.99-59.619 1.857-.093 3.718-.141 5.532-.141 14.882 0 28.46 3.181 40.36 9.455 9.768 5.15 18.483 12.419 25.903 21.603 13.029 16.127 18.325 33.32 20.065 38.97.15.487.268.872.358 1.142.465 1.402 2.416 3.512 4.482 5.746 6.117 6.617 15.363 16.617 8.146 30.42-3.074 5.879-8.18 8.986-14.765 8.986-8.778 0-17.81-5.395-20.422-7.086-23.614 6.48-47.493 9.764-70.992 9.764z"/>
        <path fill="#FF5C62" d="M84 81.131s10.303 22.6 16.936 20.763C115.565 97.844 119 80 119 80"/>
        <path fill="#32454C" d="M99.668 103c-3.315 0-7.097-3.409-11.512-10.358-3.37-5.304-5.882-10.732-5.988-10.961a1.821 1.821 0 0 1 .888-2.415 1.815 1.815 0 0 1 2.41.888c.025.054 2.53 5.461 5.773 10.56 5.668 8.913 8.265 8.733 8.728 8.606 13.08-3.581 16.401-19.689 16.433-19.851a1.817 1.817 0 1 1 3.566.7c-.147.752-3.765 18.48-19.04 22.662-.412.113-.831.169-1.258.169"/>
        <path fill="#FFC2C4" d="M27.057 155.946c-2.014 3.13-6.23 2.295-9.874.083-3.644-2.213-5.338-4.965-3.323-8.094 2.015-3.13 6.602-3.874 10.247-1.662 3.644 2.212 4.965 6.543 2.95 9.673M10.995 155.662a2.5 2.5 0 1 1-4.989-.324 2.5 2.5 0 0 1 4.989.324M15.995 160.662a2.5 2.5 0 1 1-4.99-.325 2.5 2.5 0 0 1 4.99.325M23.995 162.662a2.5 2.5 0 1 1-4.99-.325 2.5 2.5 0 0 1 4.99.325M185.546 156.122c3.044 2.193 6.681-.025 9.274-3.316 2.593-3.292 3.16-6.411.116-8.604-3.044-2.193-7.614-1.302-10.207 1.99-2.593 3.291-2.228 7.737.817 9.93M200.23 149.545a2.5 2.5 0 1 0 4.54-2.09 2.5 2.5 0 0 0-4.54 2.09M198.23 157.545a2.5 2.5 0 1 0 4.54-2.09 2.5 2.5 0 0 0-4.54 2.09M191.23 161.545a2.5 2.5 0 1 0 4.54-2.09 2.5 2.5 0 0 0-4.54 2.09"/>
    </g>
</svg>
